<?xml version="1.0" ?><svg enable-background="new 0 0 24 24" id="Layer_1" version="1.1" viewBox="0 0 24 24" xml:space="preserve" xmlns="http://www.w3.org/2000/svg" xmlns:xlink="http://www.w3.org/1999/xlink"><g><path d="M12,0C5.3828125,0,0,5.3833008,0,12s5.3828125,12,12,12s12-5.3833008,12-12S18.6171875,0,12,0z" fill="#303C42"/><path d="M12,23C5.9345703,23,1,18.0654297,1,12S5.9345703,1,12,1s11,4.9345703,11,11S18.0654297,23,12,23z" fill="#FFB300"/><path d="M12,2C6.4863281,2,2,6.4858398,2,12s4.4863281,10,10,10s10-4.4858398,10-10S17.5136719,2,12,2z" fill="#303C42"/><path d="M12,21c-4.9628906,0-9-4.0375977-9-9s4.0371094-9,9-9s9,4.0375977,9,9S16.9628906,21,12,21z" fill="#FFCA28"/><path d="M16.1904297,9c-0.5400391,0-1.15802,0.2443848-1.7630005,0.5725708   C14.7556152,8.9675903,15,8.3496094,15,7.8095703C15,6.7270508,14.3417969,6,13.3632812,6   c-0.484375,0-0.9990234,0.3227539-1.3623047,0.6347656C11.6367188,6.3227539,11.1201172,6,10.6367188,6   C9.6582031,6,9,6.7270508,9,7.8095703c0,0.5400391,0.2443848,1.15802,0.5725708,1.7630005   C8.9675903,9.2443848,8.3496094,9,7.8095703,9C6.7275391,9,6,9.6577148,6,10.6362305   c0,0.4833984,0.3222656,0.9990234,0.6347656,1.3632812C6.3222656,12.3632812,6,12.8789062,6,13.3637695   C6,14.3422852,6.7275391,15,7.8095703,15c0.5400391,0,1.15802-0.2443848,1.7630005-0.5725708   C9.2443848,15.0324097,9,15.6503906,9,16.1904297C9,17.2729492,9.6582031,18,10.6367188,18   c0.484375,0,0.9990234-0.3227539,1.3623047-0.6347656C12.3632812,17.6772461,12.8798828,18,13.3632812,18   C14.3417969,18,15,17.2729492,15,16.1904297c0-0.5400391-0.2443848-1.15802-0.5725708-1.7630005   C15.0324097,14.7556152,15.6503906,15,16.1904297,15C17.2724609,15,18,14.3422852,18,13.3637695   c0-0.4833984-0.3222656-0.9990234-0.6347656-1.3632812C17.6777344,11.6367188,18,11.1210938,18,10.6362305   C18,9.6577148,17.2724609,9,16.1904297,9z" fill="#303C42"/><path d="M10.6367188,7c0.2089844,0,0.7353516,0.3535156,0.9726562,0.652832   c0.0947266,0.1196289,0.2392578,0.1894531,0.3916016,0.1894531c0.1533203,0,0.2978516-0.0703125,0.3925781-0.1904297   C12.6289062,7.3535156,13.1542969,7,13.3632812,7C13.8896484,7,14,7.4404297,14,7.8095703   c0,0.8730469-1.1103516,2.4311523-2,3.4482422c-0.8896484-1.0161133-2-2.5737305-2-3.4482422   C10,7.4404297,10.1103516,7,10.6367188,7z" fill="#69B342"/><path d="M7,13.3637695c0-0.2094727,0.3535156-0.7363281,0.6513672-0.9716797   c0.1201172-0.0947266,0.1904297-0.2392578,0.1904297-0.3925781c0-0.152832-0.0703125-0.2973633-0.1894531-0.3920898   C7.3535156,11.3710938,7,10.8447266,7,10.6362305C7,10.1103516,7.4404297,10,7.8095703,10   c0.8730469,0,2.4316406,1.1108398,3.4482422,2c-1.015625,0.8896484-2.5732422,2-3.4482422,2   C7.4404297,14,7,13.8896484,7,13.3637695z" fill="#69B342"/><path d="M13.3632812,17c-0.2089844,0-0.7353516-0.3535156-0.9726562-0.652832   c-0.0947266-0.1196289-0.2392578-0.1894531-0.3916016-0.1894531c-0.1533203,0-0.2978516,0.0703125-0.3925781,0.1904297   C11.3710938,16.6464844,10.8457031,17,10.6367188,17C10.1103516,17,10,16.5595703,10,16.1904297   c0-0.8730469,1.1103516-2.4311523,2-3.4482422c0.8896484,1.0161133,2,2.5737305,2,3.4482422   C14,16.5595703,13.8896484,17,13.3632812,17z" fill="#69B342"/><path d="M10.4000244,8.647644C10.4000244,8.352356,10.4882812,8,10.9093628,8   c0.1671753,0,0.5883179,0.2827759,0.7781258,0.5222778c0.0758171,0.0957031,0.1914177,0.1515503,0.3133049,0.1515503   c0.1226196,0,0.2382812-0.0562744,0.3140259-0.1523438C12.5031128,8.2827759,12.9234619,8,13.0906372,8   c0.4210815,0,0.5093384,0.352356,0.5093384,0.647644c0,0.2018433-0.079834,0.4519653-0.2025146,0.7216797   C13.7501221,8.7833252,14,8.2200928,14,7.8095703C14,7.4404297,13.8896484,7,13.3632812,7   c-0.2089844,0-0.734375,0.3535156-0.9697266,0.6518555c-0.0947266,0.1201172-0.2392578,0.1904297-0.3925781,0.1904297   c-0.1523438,0-0.296875-0.0698242-0.3916016-0.1894531C11.3720703,7.3535156,10.8457031,7,10.6367188,7   C10.1103516,7,10,7.4404297,10,7.8095703c0,0.411499,0.2502441,0.9754028,0.6032715,1.5618896   C10.4802246,9.1010742,10.4000244,8.8502197,10.4000244,8.647644z" fill="#FFFFFF" opacity="0.2"/><path d="M13.3967285,14.62854c0.1230469,0.2703857,0.2032471,0.5212402,0.2032471,0.7238159   C13.5999756,15.647644,13.5117188,16,13.0906372,16c-0.1671753,0-0.5883179-0.2828369-0.7781487-0.5222778   c-0.0757942-0.0957031-0.1913948-0.1515503-0.313282-0.1515503c-0.1226196,0-0.2382812,0.0562134-0.3140259,0.1523438   C11.4968872,15.7171631,11.0765381,16,10.9093628,16c-0.4210815,0-0.5093384-0.352356-0.5093384-0.647644   c0-0.2018433,0.079834-0.4519043,0.2024536-0.7215576C10.2498169,15.2167969,10,15.7799072,10,16.1904297   C10,16.5595703,10.1103516,17,10.6367188,17c0.2089844,0,0.734375-0.3535156,0.9697266-0.6518555   c0.0947266-0.1201172,0.2392578-0.1904297,0.3925781-0.1904297c0.1523438,0,0.296875,0.0698242,0.3916016,0.1894531   C12.6279297,16.6464844,13.1542969,17,13.3632812,17C13.8896484,17,14,16.5595703,14,16.1904297   C14,15.7789307,13.7497559,15.2150269,13.3967285,14.62854z" opacity="0.1"/><path d="M16.3476562,12.3925781C16.6464844,12.6289062,17,13.1552734,17,13.3637695   C17,13.8896484,16.5595703,14,16.1904297,14c-0.8730469,0-2.4316406-1.1108398-3.4482422-2   c1.015625-0.8896484,2.5732422-2,3.4482422-2C16.5595703,10,17,10.1103516,17,10.6362305   c0,0.2094727-0.3535156,0.7363281-0.6513672,0.9716797c-0.1201172,0.0947266-0.1904297,0.2392578-0.1904297,0.3925781   C16.1582031,12.1533203,16.2285156,12.2978516,16.3476562,12.3925781z" fill="#69B342"/><path d="M15.352356,10.4000244C15.647644,10.4000244,16,10.4882812,16,10.9093628   c0,0.1671753-0.2827759,0.5883179-0.5222778,0.7781372c-0.0957031,0.0758057-0.1515503,0.1914062-0.1515503,0.3132935   c0,0.1226196,0.0562744,0.2382812,0.1523438,0.3140259C15.7172241,12.5031128,16,12.9234619,16,13.0906372   c0,0.4210815-0.352356,0.5093384-0.647644,0.5093384c-0.2018433,0-0.4519653-0.079834-0.7216797-0.2025146   C15.2166748,13.7501221,15.7799072,14,16.1904297,14C16.5595703,14,17,13.8896484,17,13.3632812   c0-0.2089844-0.3535156-0.734375-0.6518555-0.9697266c-0.1201172-0.0947266-0.1904297-0.2392578-0.1904297-0.3925781   c0-0.1523438,0.0698242-0.296875,0.1894531-0.3916016C16.6464844,11.3720703,17,10.8457031,17,10.6367188   C17,10.1103516,16.5595703,10,16.1904297,10c-0.411499,0-0.9754028,0.2502441-1.5618896,0.6032715   C14.8989258,10.4802246,15.1497803,10.4000244,15.352356,10.4000244z" opacity="0.1"/><path d="M9.37146,13.3967285c-0.2703857,0.1230469-0.5212402,0.2032471-0.7238159,0.2032471   C8.352356,13.5999756,8,13.5117188,8,13.0906372c0-0.1671753,0.2828369-0.5883179,0.5222778-0.7781372   c0.0957031-0.0758057,0.1515503-0.1914062,0.1515503-0.3132935c0-0.1226196-0.0562134-0.2382812-0.1523438-0.3140259   C8.2828369,11.4968872,8,11.0765381,8,10.9093628c0-0.4210815,0.352356-0.5093384,0.647644-0.5093384   c0.2018433,0,0.4519043,0.079834,0.7215576,0.2024536C8.7832031,10.2498169,8.2200928,10,7.8095703,10   C7.4404297,10,7,10.1103516,7,10.6367188c0,0.2089844,0.3535156,0.734375,0.6518555,0.9697266   c0.1201172,0.0947266,0.1904297,0.2392578,0.1904297,0.3925781c0,0.1523438-0.0698242,0.296875-0.1894531,0.3916016   C7.3535156,12.6279297,7,13.1542969,7,13.3632812C7,13.8896484,7.4404297,14,7.8095703,14   C8.2210693,14,8.7849731,13.7497559,9.37146,13.3967285z" fill="#FFFFFF" opacity="0.2"/><path d="M3.5,13c0-4.9624023,4.0371094-9,9-9c3.3388062,0,6.2522583,1.831543,7.8057251,4.5385742   C18.9466553,5.2895508,15.7365723,3,12,3c-4.9628906,0-9,4.0375977-9,9c0,1.6240234,0.4386597,3.1448364,1.194397,4.4616699   C3.748291,15.3952637,3.5,14.2263184,3.5,13z" fill="#FFFFFF" opacity="0.2"/><linearGradient gradientUnits="userSpaceOnUse" id="SVGID_1_" x1="1.1248534" x2="22.8751469" y1="6.9288359" y2="17.0711651"><stop offset="0" style="stop-color:#FFFFFF;stop-opacity:0.2"/><stop offset="1" style="stop-color:#FFFFFF;stop-opacity:0"/></linearGradient><path d="M12,0C5.3828125,0,0,5.3833008,0,12s5.3828125,12,12,12s12-5.3833008,12-12S18.6171875,0,12,0z" fill="url(#SVGID_1_)"/></g><g/><g/><g/><g/><g/><g/><g/><g/><g/><g/><g/><g/><g/><g/><g/></svg>